<svg width="37" height="37" viewBox="0 0 37 37" fill="none" xmlns="http://www.w3.org/2000/svg">
<path fill-rule="evenodd" clip-rule="evenodd" d="M17.1669 27.3294C17.9074 27.5703 18.5218 28.0954 18.875 28.7893C19.2282 29.4832 19.2914 30.289 19.0505 31.0294C18.8096 31.7698 18.2845 32.3842 17.5906 32.7375C16.8967 33.0907 16.0909 33.1538 15.3505 32.9129C14.6101 32.6721 13.9956 32.1469 13.6424 31.453C13.2892 30.7591 13.2261 29.9534 13.4669 29.2129C13.7078 28.4725 14.233 27.8581 14.9269 27.5049C15.6207 27.1517 16.4265 27.0885 17.1669 27.3294ZM9.79247 20.2994C10.718 20.6005 11.486 21.257 11.9275 22.1243C12.3691 22.9917 12.448 23.9989 12.1469 24.9244C11.8458 25.85 11.1894 26.618 10.322 27.0595C9.45464 27.5011 8.44741 27.58 7.52188 27.2789C6.59635 26.9778 5.82835 26.3213 5.38681 25.454C4.94527 24.5866 4.86637 23.5794 5.16747 22.6539C5.46857 21.7283 6.125 20.9603 6.99236 20.5188C7.85971 20.0772 8.86694 19.9983 9.79247 20.2994ZM25.7269 26.2552C26.4674 26.496 27.0818 27.0212 27.435 27.7151C27.7882 28.409 27.8513 29.2147 27.6105 29.9552C27.3696 30.6956 26.8444 31.31 26.1506 31.6632C25.4567 32.0164 24.6509 32.0796 23.9105 31.8387C23.17 31.5978 22.5556 31.0727 22.2024 30.3788C21.8492 29.6849 21.7861 28.8791 22.0269 28.1387C22.2678 27.3983 22.793 26.7839 23.4868 26.4306C24.1807 26.0774 24.9865 26.0143 25.7269 26.2552ZM30.67 21.4094C31.2253 21.5901 31.6861 21.9839 31.9511 22.5043C32.216 23.0248 32.2633 23.6291 32.0827 24.1844C31.902 24.7397 31.5082 25.2005 30.9877 25.4655C30.4673 25.7304 29.863 25.7777 29.3077 25.5971C28.7524 25.4164 28.2915 25.0225 28.0266 24.5021C27.7617 23.9817 27.7144 23.3774 27.895 22.8221C28.0757 22.2667 28.4695 21.8059 28.99 21.541C29.5104 21.2761 30.1147 21.2287 30.67 21.4094ZM9.84312 9.51059C10.7687 9.81169 11.5367 10.4681 11.9782 11.3355C12.4197 12.2028 12.4986 13.2101 12.1975 14.1356C11.8964 15.0611 11.24 15.8291 10.3726 16.2707C9.50529 16.7122 8.49806 16.7911 7.57253 16.49C6.64701 16.1889 5.879 15.5325 5.43746 14.6651C4.99592 13.7978 4.91702 12.7905 5.21812 11.865C5.51922 10.9395 6.17565 10.1715 7.04301 9.72992C7.91037 9.28839 8.9176 9.20949 9.84312 9.51059ZM31.5407 15.3453C31.9109 15.4657 32.2181 15.7283 32.3947 16.0753C32.5713 16.4222 32.6029 16.8251 32.4825 17.1953C32.362 17.5655 32.0994 17.8727 31.7525 18.0493C31.4056 18.2259 31.0027 18.2575 30.6325 18.1371C30.2622 18.0166 29.955 17.7541 29.7784 17.4071C29.6018 17.0602 29.5703 16.6573 29.6907 16.2871C29.8111 15.9169 30.0737 15.6096 30.4206 15.433C30.7676 15.2564 31.1705 15.2249 31.5407 15.3453ZM20.2452 3.63294C21.3558 3.99426 22.2774 4.78198 22.8073 5.82281C23.3371 6.86363 23.4318 8.07231 23.0705 9.18294C22.7092 10.2936 21.9214 11.2152 20.8806 11.745C19.8398 12.2749 18.6311 12.3696 17.5205 12.0082C16.4098 11.6469 15.4882 10.8592 14.9584 9.81837C14.4285 8.77755 14.3339 7.56887 14.6952 6.45824C15.0565 5.3476 15.8442 4.42599 16.885 3.89615C17.9259 3.3663 19.1345 3.27162 20.2452 3.63294ZM29.3519 11.2265C29.5371 11.2867 29.6907 11.418 29.779 11.5915C29.8673 11.7649 29.883 11.9664 29.8228 12.1515C29.7626 12.3366 29.6313 12.4902 29.4579 12.5785C29.2844 12.6668 29.0829 12.6826 28.8978 12.6224C28.7127 12.5621 28.5591 12.4308 28.4708 12.2574C28.3825 12.0839 28.3667 11.8825 28.4269 11.6974C28.4872 11.5122 28.6185 11.3586 28.7919 11.2703C28.9654 11.182 29.1668 11.1663 29.3519 11.2265Z" fill="url(#paint0_linear_5713_45826)"/>
<defs>
<linearGradient id="paint0_linear_5713_45826" x1="31.9134" y1="34.9638" x2="6.70086" y2="0.895388" gradientUnits="userSpaceOnUse">
<stop stop-color="#EBE7E7"/>
<stop offset="1" stop-color="#4A4A4A"/>
</linearGradient>
</defs>
</svg>
