<svg width="140" height="198" viewBox="0 0 140 198" fill="none" xmlns="http://www.w3.org/2000/svg">
<path d="M134.122 171.528C140.887 177.904 139.932 188.974 132.172 194.116C123.918 199.586 112.781 195.254 110.363 185.634L98.3453 137.81L134.122 171.528ZM79.539 84.2273C83.0039 86.8979 85.4703 90.6662 86.5403 94.9239L96.5446 134.738L65.511 105.489C63.26 103.368 61.5453 100.736 60.5089 97.8131L46.7238 58.935L79.539 84.2273ZM6.96137 2.89145C14.7248 -2.25306 25.2146 1.26096 28.3312 10.0502L44.6483 56.0707L6.09412 26.354C-1.71869 20.332 -1.27583 8.35016 6.96137 2.89145Z" fill="url(#paint0_linear_1_1853)" stroke="black"/>
<defs>
<linearGradient id="paint0_linear_1_1853" x1="5.86692" y1="3.01691" x2="132.681" y2="194.379" gradientUnits="userSpaceOnUse">
<stop stop-color="#2400FF"/>
<stop offset="1"/>
</linearGradient>
</defs>
</svg>
