<svg width="145" height="194" viewBox="0 0 145 194" fill="none" xmlns="http://www.w3.org/2000/svg">
<path d="M28.189 183.585C24.7374 192.244 14.137 195.368 6.55992 189.959C-1.49991 184.204 -1.52638 172.186 6.50824 166.428L46.4326 137.812L28.189 183.585ZM89.2337 100.734C88.0169 104.954 85.4203 108.636 81.8633 111.186L48.6253 135.008L64.4515 95.3018C65.6003 92.4196 67.4166 89.8554 69.7491 87.8218L100.75 60.792L89.2337 100.734ZM138.227 3.17589C145.808 8.58848 146.357 19.7022 139.346 25.8154L102.65 57.8076L116.181 10.883C118.924 1.36938 130.183 -2.56686 138.227 3.17589Z" fill="url(#paint0_linear_1_1854)" stroke="black"/>
<defs>
<linearGradient id="paint0_linear_1_1854" x1="137.714" y1="2.19528" x2="4.34542" y2="188.992" gradientUnits="userSpaceOnUse">
<stop stop-color="#2E0CFF"/>
<stop offset="1"/>
</linearGradient>
</defs>
</svg>
